<svg xmlns="http://www.w3.org/2000/svg" width="1440" height="549" fill="none" viewBox="0 0 1440 549"><circle cx="1384" cy="100" r="1" fill="#2138B7" transform="rotate(90 1384 100)"/><circle cx="1384" cy="122" r="1" fill="#2138B7" transform="rotate(90 1384 122)"/><circle cx="1384" cy="144" r="1" fill="#2138B7" transform="rotate(90 1384 144)"/><circle cx="1384" cy="166" r="1" fill="#2138B7" transform="rotate(90 1384 166)"/><circle cx="1384" cy="188" r="1" fill="#2138B7" transform="rotate(90 1384 188)"/><circle cx="1384" cy="210" r="1" fill="#2138B7" transform="rotate(90 1384 210)"/><circle cx="1384" cy="232" r="1" fill="#2138B7" transform="rotate(90 1384 232)"/><circle cx="1384" cy="254" r="1" fill="#2138B7" transform="rotate(90 1384 254)"/><circle cx="1384" cy="276" r="1" fill="#2138B7" transform="rotate(90 1384 276)"/><circle cx="1384" cy="298" r="1" fill="#2138B7" transform="rotate(90 1384 298)"/><circle cx="1384" cy="320" r="1" fill="#2138B7" transform="rotate(90 1384 320)"/><circle cx="1362" cy="100" r="1" fill="#2138B7" transform="rotate(90 1362 100)"/><circle cx="1362" cy="122" r="1" fill="#2138B7" transform="rotate(90 1362 122)"/><circle cx="1362" cy="144" r="1" fill="#2138B7" transform="rotate(90 1362 144)"/><circle cx="1362" cy="166" r="1" fill="#2138B7" transform="rotate(90 1362 166)"/><circle cx="1362" cy="188" r="1" fill="#2138B7" transform="rotate(90 1362 188)"/><circle cx="1362" cy="210" r="1" fill="#2138B7" transform="rotate(90 1362 210)"/><circle cx="1362" cy="232" r="1" fill="#2138B7" transform="rotate(90 1362 232)"/><circle cx="1362" cy="254" r="1" fill="#2138B7" transform="rotate(90 1362 254)"/><circle cx="1362" cy="276" r="1" fill="#2138B7" transform="rotate(90 1362 276)"/><circle cx="1362" cy="298" r="1" fill="#2138B7" transform="rotate(90 1362 298)"/><circle cx="1362" cy="320" r="1" fill="#2138B7" transform="rotate(90 1362 320)"/><circle cx="1340" cy="100" r="1" fill="#2138B7" transform="rotate(90 1340 100)"/><circle cx="1340" cy="122" r="1" fill="#2138B7" transform="rotate(90 1340 122)"/><circle cx="1340" cy="144" r="1" fill="#2138B7" transform="rotate(90 1340 144)"/><circle cx="1340" cy="166" r="1" fill="#2138B7" transform="rotate(90 1340 166)"/><circle cx="1340" cy="188" r="1" fill="#2138B7" transform="rotate(90 1340 188)"/><circle cx="1340" cy="210" r="1" fill="#2138B7" transform="rotate(90 1340 210)"/><circle cx="1340" cy="232" r="1" fill="#2138B7" transform="rotate(90 1340 232)"/><circle cx="1340" cy="254" r="1" fill="#2138B7" transform="rotate(90 1340 254)"/><circle cx="1340" cy="276" r="1" fill="#2138B7" transform="rotate(90 1340 276)"/><circle cx="1340" cy="298" r="1" fill="#2138B7" transform="rotate(90 1340 298)"/><circle cx="1340" cy="320" r="1" fill="#2138B7" transform="rotate(90 1340 320)"/><circle cx="1318" cy="100" r="1" fill="#2138B7" transform="rotate(90 1318 100)"/><circle cx="1318" cy="122" r="1" fill="#2138B7" transform="rotate(90 1318 122)"/><circle cx="1318" cy="144" r="1" fill="#2138B7" transform="rotate(90 1318 144)"/><circle cx="1318" cy="166" r="1" fill="#2138B7" transform="rotate(90 1318 166)"/><circle cx="1318" cy="188" r="1" fill="#2138B7" transform="rotate(90 1318 188)"/><circle cx="1318" cy="210" r="1" fill="#2138B7" transform="rotate(90 1318 210)"/><circle cx="1318" cy="232" r="1" fill="#2138B7" transform="rotate(90 1318 232)"/><circle cx="1318" cy="254" r="1" fill="#2138B7" transform="rotate(90 1318 254)"/><circle cx="1318" cy="276" r="1" fill="#2138B7" transform="rotate(90 1318 276)"/><circle cx="1318" cy="298" r="1" fill="#2138B7" transform="rotate(90 1318 298)"/><circle cx="1318" cy="320" r="1" fill="#2138B7" transform="rotate(90 1318 320)"/><circle cx="1296" cy="100" r="1" fill="#2138B7" transform="rotate(90 1296 100)"/><circle cx="1296" cy="122" r="1" fill="#2138B7" transform="rotate(90 1296 122)"/><circle cx="1296" cy="144" r="1" fill="#2138B7" transform="rotate(90 1296 144)"/><circle cx="1296" cy="166" r="1" fill="#2138B7" transform="rotate(90 1296 166)"/><circle cx="1296" cy="188" r="1" fill="#2138B7" transform="rotate(90 1296 188)"/><circle cx="1296" cy="210" r="1" fill="#2138B7" transform="rotate(90 1296 210)"/><circle cx="1296" cy="232" r="1" fill="#2138B7" transform="rotate(90 1296 232)"/><circle cx="1296" cy="254" r="1" fill="#2138B7" transform="rotate(90 1296 254)"/><circle cx="1296" cy="276" r="1" fill="#2138B7" transform="rotate(90 1296 276)"/><circle cx="1296" cy="298" r="1" fill="#2138B7" transform="rotate(90 1296 298)"/><circle cx="1296" cy="320" r="1" fill="#2138B7" transform="rotate(90 1296 320)"/><circle cx="1274" cy="100" r="1" fill="#2138B7" transform="rotate(90 1274 100)"/><circle cx="1274" cy="122" r="1" fill="#2138B7" transform="rotate(90 1274 122)"/><circle cx="1274" cy="144" r="1" fill="#2138B7" transform="rotate(90 1274 144)"/><circle cx="1274" cy="166" r="1" fill="#2138B7" transform="rotate(90 1274 166)"/><circle cx="1274" cy="188" r="1" fill="#2138B7" transform="rotate(90 1274 188)"/><circle cx="1274" cy="210" r="1" fill="#2138B7" transform="rotate(90 1274 210)"/><circle cx="1274" cy="232" r="1" fill="#2138B7" transform="rotate(90 1274 232)"/><circle cx="1274" cy="254" r="1" fill="#2138B7" transform="rotate(90 1274 254)"/><circle cx="1274" cy="276" r="1" fill="#2138B7" transform="rotate(90 1274 276)"/><circle cx="1274" cy="298" r="1" fill="#2138B7" transform="rotate(90 1274 298)"/><circle cx="1274" cy="320" r="1" fill="#2138B7" transform="rotate(90 1274 320)"/><rect width="618.566" height="325.677" x="396.207" y="211.708" fill="#F9FAFE" rx="34" transform="rotate(-9.37 396.207 211.708)"/><rect width="260.954" height="93.378" x="1137" y="296.486" fill="#D1D5F4" rx="24" transform="rotate(-9.37 1137 296.486)"/><rect width="477.083" height="90.846" x="-113" y="359.674" fill="#67D0CA" rx="26" transform="rotate(-9.37 -113 359.674)"/><rect width="215.009" height="41.822" x="261" y="507.006" fill="#F6D869" rx="10" transform="rotate(-9.37 261 507.006)"/><rect width="64.253" height="67.841" fill="#2138B7" rx="18" transform="matrix(0.986658 -0.162809 -0.162809 -0.986658 1042.04 484.397)"/><rect width="462.914" height="147.943" x="1033" y="75.367" fill="#F6D869" rx="34" transform="rotate(-9.37 1033 75.3667)"/><rect width="64.253" height="67.841" fill="#67D0CA" rx="13" transform="matrix(0.986658 -0.162809 -0.162809 -0.986658 1263.04 230.397)"/><rect width="64.253" height="67.841" fill="#D1D5F4" rx="13" transform="matrix(0.986658 -0.162809 -0.162809 -0.986658 327.045 253.397)"/><circle cx="259" cy="123" r="1" fill="#2138B7"/><circle cx="281" cy="123" r="1" fill="#2138B7"/><circle cx="303" cy="123" r="1" fill="#2138B7"/><circle cx="325" cy="123" r="1" fill="#2138B7"/><circle cx="347" cy="123" r="1" fill="#2138B7"/><circle cx="369" cy="123" r="1" fill="#2138B7"/><circle cx="391" cy="123" r="1" fill="#2138B7"/><circle cx="413" cy="123" r="1" fill="#2138B7"/><circle cx="435" cy="123" r="1" fill="#2138B7"/><circle cx="457" cy="123" r="1" fill="#2138B7"/><circle cx="479" cy="123" r="1" fill="#2138B7"/><circle cx="259" cy="145" r="1" fill="#2138B7"/><circle cx="281" cy="145" r="1" fill="#2138B7"/><circle cx="303" cy="145" r="1" fill="#2138B7"/><circle cx="325" cy="145" r="1" fill="#2138B7"/><circle cx="347" cy="145" r="1" fill="#2138B7"/><circle cx="369" cy="145" r="1" fill="#2138B7"/><circle cx="391" cy="145" r="1" fill="#2138B7"/><circle cx="413" cy="145" r="1" fill="#2138B7"/><circle cx="435" cy="145" r="1" fill="#2138B7"/><circle cx="457" cy="145" r="1" fill="#2138B7"/><circle cx="479" cy="145" r="1" fill="#2138B7"/><circle cx="259" cy="167" r="1" fill="#2138B7"/><circle cx="281" cy="167" r="1" fill="#2138B7"/><circle cx="303" cy="167" r="1" fill="#2138B7"/><circle cx="325" cy="167" r="1" fill="#2138B7"/><circle cx="347" cy="167" r="1" fill="#2138B7"/><circle cx="369" cy="167" r="1" fill="#2138B7"/><circle cx="391" cy="167" r="1" fill="#2138B7"/><circle cx="413" cy="167" r="1" fill="#2138B7"/><circle cx="435" cy="167" r="1" fill="#2138B7"/><circle cx="457" cy="167" r="1" fill="#2138B7"/><circle cx="479" cy="167" r="1" fill="#2138B7"/><circle cx="259" cy="189" r="1" fill="#2138B7"/><circle cx="281" cy="189" r="1" fill="#2138B7"/><circle cx="303" cy="189" r="1" fill="#2138B7"/><circle cx="325" cy="189" r="1" fill="#2138B7"/><circle cx="347" cy="189" r="1" fill="#2138B7"/><circle cx="369" cy="189" r="1" fill="#2138B7"/><circle cx="391" cy="189" r="1" fill="#2138B7"/><circle cx="413" cy="189" r="1" fill="#2138B7"/><circle cx="435" cy="189" r="1" fill="#2138B7"/><circle cx="457" cy="189" r="1" fill="#2138B7"/><circle cx="479" cy="189" r="1" fill="#2138B7"/><circle cx="259" cy="211" r="1" fill="#2138B7"/><circle cx="281" cy="211" r="1" fill="#2138B7"/><circle cx="303" cy="211" r="1" fill="#2138B7"/><circle cx="325" cy="211" r="1" fill="#2138B7"/><circle cx="347" cy="211" r="1" fill="#2138B7"/><circle cx="369" cy="211" r="1" fill="#2138B7"/><circle cx="391" cy="211" r="1" fill="#2138B7"/><circle cx="413" cy="211" r="1" fill="#2138B7"/><circle cx="435" cy="211" r="1" fill="#2138B7"/><circle cx="457" cy="211" r="1" fill="#2138B7"/><circle cx="479" cy="211" r="1" fill="#2138B7"/><circle cx="259" cy="233" r="1" fill="#2138B7"/><circle cx="281" cy="233" r="1" fill="#2138B7"/><circle cx="303" cy="233" r="1" fill="#2138B7"/><circle cx="325" cy="233" r="1" fill="#2138B7"/><circle cx="347" cy="233" r="1" fill="#2138B7"/><circle cx="369" cy="233" r="1" fill="#2138B7"/><circle cx="391" cy="233" r="1" fill="#2138B7"/><circle cx="413" cy="233" r="1" fill="#2138B7"/><circle cx="435" cy="233" r="1" fill="#2138B7"/><circle cx="457" cy="233" r="1" fill="#2138B7"/><circle cx="479" cy="233" r="1" fill="#2138B7"/></svg>